<?xml version="1.0" encoding="UTF-8"?>
<svg width="134px" height="200px" viewBox="0 0 134 200" version="1.1" xmlns="http://www.w3.org/2000/svg" xmlns:xlink="http://www.w3.org/1999/xlink">
    <!-- Generator: Sketch 55.2 (78181) - https://sketchapp.com -->
    <title>card_back</title>
    <desc>Created with Sketch.</desc>
    <g id="Page-1" stroke="none" stroke-width="1" fill="none" fill-rule="evenodd">
        <g id="card_back" fill="#000000" fill-rule="nonzero">
            <path d="M64.0349964,96.6149359 L37.6419123,68.1387355 L37.4544318,68.3470472 C38.5793147,77.9085512 41.8289761,82.7413811 45.7452349,87.0534319 C51.3488178,93.1153005 58.514738,96.1983127 63.8475159,96.8232476 L64.0349964,96.6149359 Z M67.2013332,103.593376 C67.2221644,103.926674 67.2638267,104.322466 67.3263202,104.780752 C67.3679825,104.343298 67.3888137,103.947505 67.3888137,103.593376 L67.2013332,103.593376 Z M63.8475159,101.135298 C58.5355692,101.760233 51.3488178,104.843245 45.7452349,110.905114 C41.8289761,115.217165 38.5584835,120.049995 37.2669514,129.81981 L37.5377565,130.028122 L64.0349964,101.364441 L63.8475159,101.135298 L63.8475159,101.135298 Z M42.953859,93.1153005 L38.0168732,98.65639 L42.953859,104.822414 L48.5574419,98.65639 L42.953859,93.1153005 Z M63.4725549,99.0730132 C63.1392563,99.0938444 62.7226331,99.1355067 62.2643475,99.1980002 C62.7226331,99.2604937 63.1184252,99.2813249 63.4725549,99.2813249 L63.4725549,99.0730132 Z M120.195813,0 L13.123633,0 C5.87438808,0 0,6.33267368 0,14.14436 L0,185.85564 C0,193.667326 5.87438808,200 13.123633,200 L120.195813,200 C127.445058,200 133.319446,193.667326 133.319446,185.85564 L133.319446,14.14436 C133.319446,6.33267368 127.445058,0 120.195813,0 Z M27.788772,17.0398917 C34.9338611,17.0398917 40.1833142,25.747318 44.7036767,30.4968232 L44.8911572,30.2885116 C44.3287158,28.6220185 44.1412353,26.9763566 44.1412353,25.1015519 C44.1412353,23.2475784 45.2661181,17.2273721 50.7238829,17.2273721 C55.2442454,17.2273721 56.9315696,21.3727737 56.9315696,23.2267472 C56.9315696,25.9139673 55.2442454,29.0178106 52.4112072,29.0178106 C49.973961,29.0178106 49.0365587,27.1430059 49.0365587,25.9139673 C49.0365587,24.476617 49.4115196,23.0184356 50.9113634,23.0184356 C52.2237267,23.0184356 52.7861681,24.0599938 52.7861681,25.497344 C52.7861681,25.9139673 52.7861681,26.3305906 52.5986876,26.7472138 C53.3486095,26.7472138 55.2234142,26.1222789 55.2234142,23.2267472 C55.2234142,20.7478388 53.161129,18.8730341 50.9113634,18.8730341 C48.4741173,18.8730341 45.8285595,20.3312155 45.8285595,25.497344 C45.8285595,30.0593688 47.7033642,35.2254973 55.7858556,35.2254973 C58.5980627,35.2254973 65.9306322,33.1632122 65.9306322,24.0391626 C65.9306322,19.4771378 63.868347,18.4564108 62.1810228,18.4564108 C60.8686595,18.4564108 59.9312572,19.2896573 59.9312572,20.9353192 C59.9312572,21.7685658 60.4936986,22.5809811 61.2436205,22.7892928 C61.2436205,21.9560462 61.6185814,21.1436309 62.3685033,21.1436309 C63.1184252,21.1436309 63.6808666,22.185189 63.6808666,22.9976044 C63.6808666,23.830851 63.1184252,25.2682012 61.6185814,25.2682012 C60.4936986,25.2682012 58.4314134,24.0183314 58.4314134,21.3311113 C58.4314134,18.0189564 60.4936986,16.9773982 62.1810228,16.9773982 C64.6182689,16.9773982 66.7013853,18.4355796 67.3471513,21.7477346 L67.5346318,21.7477346 C68.201229,18.4355796 70.2635142,16.9773982 72.5132799,16.9773982 C74.3880846,16.9773982 76.4712009,18.0189564 76.4712009,21.3311113 C76.4712009,24.0183314 74.4089157,25.0598896 73.2840329,25.0598896 C71.7841891,25.0598896 71.2217477,23.8100198 71.2217477,22.9976044 C71.2217477,22.1643579 71.7841891,21.1436309 72.534111,21.1436309 C73.0965524,21.1436309 73.6589939,21.9768774 73.6589939,22.7892928 C74.4089157,22.5809811 74.9713572,21.7477346 74.9713572,20.7270076 C74.9713572,19.2688262 73.8464743,18.4564108 72.534111,18.4564108 C71.0342673,18.4564108 68.9719821,19.497969 68.9719821,24.0391626 C68.9719821,33.142381 76.3045516,35.2254973 78.9292782,35.2254973 C87.1992501,35.2254973 89.0740548,30.0385377 89.0740548,25.2890324 C89.0740548,20.3103843 86.4493282,18.8730341 83.9912509,18.8730341 C81.7414853,18.8730341 79.6792001,20.7478388 79.6792001,23.2267472 C79.6792001,26.1222789 81.3665243,26.7472138 82.1164462,26.7472138 C82.1164462,26.3305906 81.9289657,25.7056557 82.1164462,25.497344 C82.1164462,24.0391626 82.6788876,23.0184356 83.9912509,23.0184356 C85.3036142,23.0184356 85.8660556,24.476617 85.8660556,25.9139673 C85.8660556,27.1638371 84.9286533,29.0178106 82.4914071,29.0178106 C79.6792001,29.0178106 77.9710447,25.9139673 77.9710447,23.2267472 C77.9710447,21.164462 79.6583689,17.2273721 84.1787314,17.2273721 C89.6364962,17.2273721 90.761379,23.2267472 90.761379,25.1015519 C90.761379,26.9763566 90.5738986,28.6220185 89.8239767,30.2885116 L90.0114571,30.4968232 C94.5318196,25.7264868 99.9687533,17.0398917 106.926362,17.0398917 C113.509009,17.0398917 114.446412,23.0392667 114.446412,24.7057598 C114.446412,26.768045 113.69649,31.5383814 108.051245,31.5383814 C105.801479,31.5383814 103.926674,29.4552651 103.926674,27.1846683 C103.926674,24.7057598 105.426518,23.6642016 106.551401,23.6642016 C107.676284,23.6642016 108.801167,24.2891365 108.801167,25.9347985 C108.801167,27.6012915 107.863764,27.8096032 107.676284,28.0179148 C107.863764,28.6428497 108.426206,29.059473 108.988647,29.059473 C109.926049,29.059473 112.550776,28.8511613 112.550776,24.7057598 C112.550776,20.9769816 110.11353,18.9146964 107.093011,18.9146964 C102.197688,18.9146964 99.0105197,22.6434746 89.990626,32.9965629 L90.1781064,33.2048745 C91.6779502,32.5799396 93.3652745,31.9550047 94.3026768,31.9550047 C97.3023643,31.9550047 101.072805,34.038121 101.072805,39.8291845 C101.072805,45.4119363 97.6981564,47.7033642 94.3026768,47.7033642 C90.9280283,47.7033642 88.844912,44.5995209 88.844912,42.3289241 C88.844912,40.0583273 89.9697948,38.8084575 91.6571191,38.8084575 C93.1569628,38.8084575 93.7194042,40.0583273 93.7194042,41.0790543 C93.7194042,42.1206124 93.3444433,43.5579627 91.4696386,43.3496511 C91.8445995,44.3912092 92.5945214,45.6202479 94.2818456,45.6202479 C96.9065722,45.6202479 99.3646495,43.5579627 99.3646495,39.8291845 C99.3646495,35.8920946 97.1148839,33.8298094 94.4693261,33.8298094 C93.5319238,33.8298094 91.8445995,34.2464327 89.9489636,35.0796792 C87.8866785,35.9129257 82.4289137,37.350276 78.8667847,37.350276 C75.4921362,37.350276 69.2844495,35.0796792 67.4929695,28.038746 L67.3888137,28.038746 C65.514009,35.0796792 59.3063223,37.5585876 55.7441933,37.5585876 C52.3695448,37.5585876 46.91178,35.8920946 44.8494948,35.0796792 C42.9746901,34.2464327 41.2873659,33.8298094 40.3291324,33.8298094 C37.7044058,33.8298094 35.433809,35.8920946 35.433809,39.8291845 C35.433809,43.5579627 37.8710551,45.6202479 40.3291324,45.6202479 C42.2039371,45.6202479 42.953859,44.3703781 43.3288199,43.3496511 C41.4540152,43.5579627 41.0790543,42.0997813 41.0790543,41.0790543 C41.0790543,40.0374961 41.6414957,38.8084575 43.1413394,38.8084575 C44.8286637,38.8084575 45.9535465,40.0583273 45.9535465,42.3289241 C45.9535465,44.5995209 43.8912613,47.7033642 40.3083012,47.7033642 C37.1211332,47.7033642 33.7256536,45.4327674 33.7256536,39.8291845 C33.7256536,34.038121 37.2877825,31.9550047 40.3083012,31.9550047 C41.433184,31.9550047 43.1205083,32.5799396 44.4537027,33.2048745 L44.6411832,32.9965629 C35.8087699,22.6434746 32.6216019,18.9146964 27.7262785,18.9146964 C24.726591,18.9146964 22.2685137,20.9978127 22.2685137,24.7057598 C22.2685137,28.8511613 24.8932403,29.059473 25.8306426,29.059473 C26.3930841,29.059473 26.9555255,28.6428497 27.1430059,28.0179148 C26.768045,27.8096032 26.0181231,27.6012915 26.0181231,25.9347985 C26.0181231,24.4974482 27.1430059,23.6642016 28.2678888,23.6642016 C29.3927716,23.6642016 30.8926154,24.7057598 30.8926154,27.1846683 C30.8926154,29.4552651 29.0178106,31.5383814 26.5597334,31.5383814 C21.1019685,31.5383814 20.3520467,26.768045 20.3520467,24.7057598 C20.4562025,23.0392667 21.2061244,17.0398917 27.788772,17.0398917 L27.788772,17.0398917 Z M111.280075,56.4941152 C111.780023,56.6607645 112.09249,56.723258 112.279971,56.723258 L112.654932,56.8065826 C113.092386,56.9107385 113.113217,57.0982189 112.821581,57.3898552 C112.175815,58.0981148 111.488387,58.8688678 111.175919,59.2438288 C110.842621,59.660452 110.342673,60.0145818 109.926049,60.2020623 C109.905218,62.1810228 111.175919,64.7432559 115.092178,69.0136444 L115.175503,68.9511509 C114.654723,67.7012811 114.488074,66.2222685 114.488074,65.4515155 C114.488074,63.3059056 115.571295,59.6812832 119.508385,59.6812832 C120.924904,59.6812832 122.758046,60.1604 123.90376,60.8686595 C124.341214,61.1186335 124.382877,61.4519321 123.778773,61.4519321 C123.341319,61.4519321 121.737319,61.4935944 120.799917,61.9727112 C120.3208,62.201854 120.237475,62.3476721 120.737423,62.7434642 C121.174878,63.1600875 122.153942,64.6391001 122.341423,64.9932299 C122.570566,65.4306843 122.570566,65.7223206 122.008124,65.514009 C121.612332,65.3265285 120.633267,65.1807103 120.133319,65.2223727 C117.758567,65.4515155 116.02958,66.9513592 116.02958,69.0136444 C116.02958,69.6802416 116.362879,70.0968649 116.904489,70.7842933 C118.7168,73.1382148 120.154151,75.8254349 120.154151,79.1167587 C120.154151,82.8247058 117.800229,87.0950943 113.196542,87.0950943 C111.238413,87.0950943 109.551088,85.9077179 109.551088,84.262056 C109.551088,83.2204979 110.280179,82.4497448 111.113426,82.3664202 C111.467555,82.3247578 111.717529,82.4289137 111.863348,82.6163941 C112.342464,83.8662639 113.175711,84.8661598 114.821373,84.8661598 C117.27945,84.8661598 118.88345,82.8663681 118.88345,79.8250182 C118.88345,76.9294865 117.571086,74.3464222 115.446308,71.7216957 C115.175503,71.388397 114.883866,70.9509426 114.029789,70.9509426 C108.842829,70.9509426 108.280387,75.2838246 108.280387,75.6796167 C108.280387,76.2628893 108.113738,76.4712009 107.61379,76.0545776 C107.009686,75.4921362 106.676388,74.4922404 106.676388,73.8673055 C106.676388,73.5340069 106.551401,73.4506822 106.17644,73.5340069 C104.468285,73.8673055 103.093428,75.2629934 102.614311,76.3253828 C102.301844,76.99198 102.072701,76.7211749 102.072701,76.1795646 C102.072701,74.4922404 102.447662,72.6382668 103.593376,71.0967608 C104.676596,69.5760858 106.488907,68.57619 108.592855,68.57619 C110.155192,68.57619 112.196646,68.9511509 113.946464,69.8885533 L114.008957,69.8468909 C110.509322,66.5763983 108.780335,63.6808666 108.780335,61.3686074 C108.780335,61.0978023 108.780335,60.7228414 108.842829,60.3062181 C108.1554,60.3478804 107.509634,60.0770753 106.905531,59.8271013 C106.238933,59.5354651 105.655661,59.3479846 105.093219,59.2646599 C104.697427,59.2021664 104.593272,59.014686 104.884908,58.6813874 C105.093219,58.4939069 105.259869,58.2647641 105.551505,57.9731278 C106.051453,57.5356734 105.947297,57.4106864 105.2807,57.2232059 C104.634934,57.0773878 102.635142,56.2649724 101.822727,55.6608687 C100.822831,54.8901156 99.6354546,53.8902198 99.6354546,50.7863764 L99.6354546,50.7447141 C99.6354546,49.7031559 99.8021039,48.3491303 100.031247,47.7866889 C100.239558,47.2659098 100.364545,47.3700656 100.593688,47.7866889 C101.031143,48.5574419 102.635142,49.4115196 103.926674,49.5156755 C104.322466,49.5573378 104.426622,49.4740131 104.426622,48.9324029 C104.426622,47.5575461 104.551609,46.4118321 105.030726,45.3494428 C105.343193,44.620352 105.572336,43.974586 105.759817,43.3913134 C105.884804,42.9955213 106.093115,42.9955213 106.426414,43.3079888 C106.822206,43.7454432 107.301323,44.3495469 107.759608,44.8286637 C108.592855,45.7868972 109.238621,46.9742735 109.446933,47.5575461 C109.655244,48.1199875 109.842725,48.3282991 110.321841,47.8491824 C110.925945,47.2659098 111.592542,46.3285074 112.134153,44.995313 C112.300802,44.620352 112.425789,44.4328716 113.134049,45.2869493 C114.071451,46.4743256 114.633892,48.432455 114.633892,49.8281429 C114.633892,52.265389 113.467347,53.4527653 111.238413,55.6400375 C110.821789,56.2441412 110.821789,56.3482971 111.280075,56.4941152 L111.280075,56.4941152 Z M115.092178,128.444954 C111.155088,132.715342 109.905218,135.277575 109.926049,137.256536 C110.363504,137.444016 110.842621,137.818977 111.175919,138.214769 C111.467555,138.58973 112.175815,139.360483 112.821581,140.068743 C113.113217,140.360379 113.092386,140.54786 112.654932,140.652015 L112.279971,140.73534 C112.071659,140.73534 111.780023,140.797834 111.280075,140.964483 C110.800958,141.110301 110.800958,141.214457 111.280075,141.735236 C113.488178,143.922508 114.675555,145.109884 114.675555,147.547131 C114.675555,148.942818 114.113113,150.921779 113.175711,152.088324 C112.467451,152.942402 112.342464,152.754921 112.175815,152.37996 C111.634205,151.046766 110.967608,150.130195 110.363504,149.526091 C109.884387,149.046974 109.696907,149.276117 109.488595,149.817727 C109.280283,150.401 108.655348,151.588376 107.801271,152.54661 C107.322154,153.025726 106.863868,153.608999 106.468076,154.067285 C106.134778,154.400583 105.926466,154.400583 105.801479,153.98396 C105.593167,153.400687 105.364025,152.754921 105.072388,152.025831 C104.593272,150.94261 104.468285,149.796896 104.468285,148.442871 C104.468285,147.880429 104.364129,147.817936 103.968337,147.859598 C102.697636,147.963754 101.072805,148.817831 100.63535,149.588585 C100.406208,150.005208 100.26039,150.109364 100.072909,149.588585 C99.8437663,149.026143 99.677117,147.672117 99.677117,146.630559 L99.677117,146.588897 C99.677117,143.485054 100.843662,142.485158 101.864389,141.714405 C102.676804,141.131132 104.676596,140.318717 105.322362,140.152067 C105.988959,139.964587 106.093115,139.860431 105.593167,139.402146 C105.301531,139.110509 105.114051,138.881367 104.92657,138.693886 C104.614103,138.360587 104.718259,138.152276 105.134882,138.110613 C105.697323,138.027289 106.280596,137.86064 106.947193,137.548172 C107.551297,137.298198 108.197063,137.027393 108.884491,137.069055 C108.821998,136.652432 108.821998,136.298302 108.821998,136.006666 C108.821998,133.694407 110.571815,130.819706 114.05062,127.528382 L113.988126,127.48672 C112.238309,128.424122 110.196854,128.799083 108.634517,128.799083 C106.509739,128.799083 104.697427,127.799188 103.635038,126.278513 C102.489324,124.716175 102.114363,122.883033 102.114363,121.195709 C102.114363,120.654099 102.322675,120.383293 102.655973,121.049891 C103.13509,122.11228 104.509947,123.507968 106.218102,123.841267 C106.593063,123.924591 106.71805,123.841267 106.71805,123.507968 C106.71805,122.883033 107.051349,121.883137 107.655453,121.320696 C108.1554,120.904072 108.32205,121.091553 108.32205,121.695657 C108.32205,122.11228 108.884491,126.424331 114.071451,126.424331 C114.904697,126.424331 115.217165,125.986876 115.48797,125.653578 C117.612749,123.028851 118.925112,120.445787 118.925112,117.550255 C118.925112,114.508905 117.321112,112.509114 114.863035,112.509114 C113.217373,112.509114 112.404958,113.509009 111.90501,114.758879 C111.759192,114.967191 111.509218,115.050516 111.155088,115.008853 C110.342673,114.925529 109.592751,114.154776 109.592751,113.113217 C109.592751,111.467555 111.280075,110.280179 113.238204,110.280179 C117.841891,110.280179 120.195813,114.529736 120.195813,118.258515 C120.195813,121.529007 118.758463,124.237059 116.946151,126.59098 C116.404541,127.278408 116.071243,127.695032 116.071243,128.361629 C116.071243,130.423914 117.82106,131.923758 120.174982,132.152901 C120.67493,132.194563 121.653994,132.048745 122.049786,131.861264 C122.612228,131.632122 122.612228,131.944589 122.383085,132.382044 C122.174773,132.757004 121.21654,134.236017 120.779086,134.631809 C120.279138,135.048432 120.383293,135.194251 120.841579,135.402562 C121.778981,135.881679 123.382981,135.923341 123.820435,135.923341 C124.424539,135.923341 124.382877,136.25664 123.945422,136.506614 C122.799708,137.214873 120.966566,137.69399 119.550047,137.69399 C115.612957,137.69399 114.529736,134.069368 114.529736,131.923758 C114.529736,131.153005 114.696386,129.694823 115.217165,128.424122 L115.092178,128.444954 L115.092178,128.444954 Z M110.884283,92.0529112 L114.071451,88.5324445 L117.258619,92.0529112 L114.092282,95.5317154 L117.258619,99.0521821 L120.424956,95.5733778 L123.612124,99.0938444 L120.424956,102.614311 L117.258619,99.1355067 L114.092282,102.59348 L117.258619,106.072284 L114.071451,109.592751 L110.884283,106.072284 L114.05062,102.59348 L110.884283,99.1355067 L107.717946,102.614311 L104.530778,99.0938444 L107.717946,95.5733778 L110.884283,99.0521821 L114.05062,95.5317154 L110.884283,92.0529112 L110.884283,92.0529112 Z M91.2821581,88.9074055 C84.0120821,96.8232476 75.1380065,99.2813249 71.888345,99.2813249 C75.1588376,99.2813249 84.0120821,101.135298 91.2821581,109.051141 C96.2191438,115.217165 99.5729611,123.133007 99.5729611,134.131861 C89.5948339,134.131861 82.4080825,130.423914 76.8253307,124.362046 C70.8259556,117.675242 67.9720862,109.030309 67.3471513,104.780752 C66.9513592,109.030309 64.5349443,117.654411 58.5564004,124.362046 C52.9528174,130.423914 45.2244558,134.131861 35.2463285,134.131861 C35.2463285,123.133007 38.6001458,115.217165 44.099573,109.051141 C50.1197792,101.947714 58.3272576,99.7396105 62.3060098,99.1980002 C58.3272576,98.7188834 50.1197792,95.990001 44.099573,88.9074055 C38.6001458,82.7413811 35.2463285,74.825539 35.2463285,63.8266847 C45.2244558,63.8266847 52.9736486,67.5346318 58.5564004,73.5965004 C65.1807103,80.9915634 67.4096448,90.761379 67.2221644,94.3443391 L67.4096448,94.3443391 C67.4096448,90.7405479 70.2010207,80.9915634 76.8253307,73.5965004 C82.4289137,67.5346318 89.5948339,63.8266847 99.5729611,63.8266847 C99.5729611,74.825539 96.2191438,82.7413811 91.2821581,88.9074055 Z M99.5729611,98.6772211 L91.8237684,106.593063 L84.5536923,98.6772211 L91.8237684,90.761379 L99.5729611,98.6772211 L99.5729611,98.6772211 Z M60.2228934,125.591084 L67.9720862,117.571086 L75.1588376,126.195188 L67.9720862,134.11103 L60.2228934,125.591084 L60.2228934,125.591084 Z M63.6808666,161.483179 C63.6808666,161.899802 63.6808666,162.316425 63.4933861,162.733049 C62.7434642,161.274867 61.2436205,159.212582 58.9730236,157.962712 C56.5357775,156.712842 53.1402979,155.900427 53.1402979,152.775753 C53.1402979,151.130091 54.2651807,149.671909 55.7650245,149.671909 C59.7229455,149.69274 63.6808666,158.379335 63.6808666,161.483179 L63.6808666,161.483179 Z M67.430476,140.777002 C70.617644,140.777002 70.9926049,145.130716 70.9926049,147.609624 C70.9926049,150.296844 68.9303198,155.900427 68.5553588,158.171024 C68.1803979,160.233309 67.430476,166.045204 67.430476,166.045204 C67.430476,166.045204 66.6805541,160.25414 66.3055932,158.171024 C65.9306322,155.900427 63.6808666,150.088532 63.6808666,147.609624 C63.6808666,145.130716 64.243308,140.777002 67.430476,140.777002 Z M78.7209666,149.69274 C80.2208103,149.69274 81.3456932,151.150922 81.3456932,152.796584 C81.3456932,155.900427 77.9710447,156.733674 75.5129674,158.191855 C73.2632017,159.233413 71.763358,161.295698 71.0134361,162.75388 C70.8259556,162.337257 70.8259556,161.920633 70.8259556,161.50401 C70.8259556,158.379335 74.7630455,149.69274 78.7209666,149.69274 L78.7209666,149.69274 Z M24.3307989,140.943652 C23.830851,140.777002 23.5183835,140.714509 23.330903,140.714509 L22.9559421,140.631184 C22.5184877,140.527028 22.4976565,140.339548 22.7892928,140.047912 C23.4350588,139.339652 24.1224872,138.568899 24.4349547,138.193938 C24.7682533,137.777315 25.2682012,137.423185 25.6848245,137.235705 C25.7056557,135.256744 24.4349547,132.694511 20.518696,128.424122 L20.4353713,128.486616 C20.9561504,129.736486 21.1227997,131.215498 21.1227997,131.986251 C21.1227997,134.131861 20.0395792,137.756484 16.1024893,137.756484 C14.6859702,137.756484 12.8528278,137.277367 11.7071138,136.569107 C11.2696594,136.319133 11.2279971,135.985835 11.8321008,135.985835 C12.2695553,135.985835 13.8735548,135.944172 14.8109572,135.465056 C15.290074,135.235913 15.3733986,135.090095 14.8734507,134.694303 C14.4359963,134.277679 13.4569316,132.798667 13.2694511,132.444537 C13.0403083,132.007083 13.0403083,131.715446 13.6027497,131.923758 C13.9985418,132.111238 14.9776065,132.257057 15.4775544,132.215394 C17.8523071,131.986251 19.5812936,130.486408 19.5812936,128.424122 C19.5812936,127.757525 19.247995,127.340902 18.7063848,126.653474 C16.8940735,124.299552 15.4567233,121.612332 15.4567233,118.321008 C15.4567233,114.613061 17.8106447,110.342673 22.4143318,110.342673 C24.3724612,110.342673 26.0597854,111.530049 26.0597854,113.175711 C26.0597854,114.217269 25.3306947,114.988022 24.4974482,115.071347 C24.1433184,115.113009 23.8933444,115.008853 23.7475263,114.821373 C23.2684095,113.571503 22.435163,112.571607 20.7895011,112.571607 C18.3314238,112.571607 16.7274242,114.571399 16.7274242,117.612749 C16.7274242,120.50828 18.0397875,123.091345 20.1645662,125.716071 C20.4353713,126.04937 20.7270076,126.486824 21.5810853,126.486824 C26.768045,126.486824 27.3304864,122.153942 27.3304864,121.75815 C27.3304864,121.174878 27.4971357,120.966566 27.9970836,121.383189 C28.6011874,121.945631 28.934486,122.945527 28.934486,123.570461 C28.934486,123.90376 29.059473,123.987085 29.4344339,123.90376 C31.1425893,123.570461 32.5174461,122.174773 32.9965629,121.112384 C33.3090303,120.445787 33.5381731,120.716592 33.5381731,121.258202 C33.5381731,122.945527 33.1632122,124.7995 32.0174982,126.341006 C30.9342777,127.861681 29.1219665,128.861577 27.018019,128.861577 C25.4556817,128.861577 23.4142277,128.486616 21.66441,127.549214 L21.6019165,127.590876 C25.1015519,130.861369 26.8305385,133.7569 26.8305385,136.069159 C26.8305385,136.339965 26.8305385,136.714926 26.768045,137.131549 C27.4554734,137.089886 28.1012395,137.360692 28.7053432,137.610666 C29.3719404,137.902302 29.955213,138.089782 30.5176544,138.173107 C30.9134465,138.2356 31.0176023,138.423081 30.725966,138.75638 C30.5176544,138.94386 30.3510051,139.173003 30.0593688,139.464639 C29.5594209,139.902094 29.6635767,140.027081 30.3301739,140.214561 C30.97594,140.360379 32.9757317,141.172795 33.7881471,141.776898 C34.7880429,142.547651 35.9754192,143.547547 35.9754192,146.65139 L35.9754192,146.693053 C35.9754192,147.734611 35.8087699,149.088637 35.5796271,149.651078 C35.3713155,150.171857 35.2463285,150.067701 35.0171857,149.651078 C34.5797313,148.880325 32.9757317,148.026247 31.6841996,147.922091 C31.2884075,147.880429 31.1842516,147.963754 31.1842516,148.505364 C31.1842516,149.880221 31.0592647,151.025935 30.5801479,152.088324 C30.2676804,152.817415 30.0385377,153.463181 29.8510572,154.046453 C29.7260702,154.463077 29.5177586,154.463077 29.18446,154.129778 C28.7886678,153.692324 28.3095511,153.08822 27.8512655,152.609103 C27.018019,151.65087 26.3722529,150.463493 26.1639413,149.880221 C25.9556296,149.317779 25.7681492,149.109468 25.2890324,149.588585 C24.6849287,150.171857 24.0183314,151.109259 23.4767212,152.442454 C23.3100719,152.817415 23.1850849,153.004895 22.4768253,152.150818 C21.539423,150.963441 20.9769816,149.005312 20.9769816,147.609624 C20.9769816,145.172378 22.1435267,143.985002 24.3724612,141.797729 C24.7890845,141.193626 24.7890845,141.08947 24.3307989,140.943652 L24.3307989,140.943652 Z M18.9146964,69.0136444 C22.8517863,64.7432559 24.1016561,62.1810228 24.0808249,60.2020623 C23.6433705,60.0145818 23.1642537,59.6396209 22.8309551,59.2438288 C22.5393188,58.8688678 21.8310593,58.0981148 21.1852932,57.3898552 C20.8936569,57.0982189 20.9144881,56.9107385 21.3519425,56.8065826 L21.7269034,56.723258 C21.9352151,56.723258 22.2268514,56.6607645 22.7267993,56.4941152 C23.2059161,56.3482971 23.2059161,56.2441412 22.7267993,55.7233621 C20.518696,53.53609 19.3313197,52.3487137 19.3313197,49.9114676 C19.3313197,48.5157796 19.8937611,46.5368191 20.8311634,45.3702739 C21.539423,44.5161962 21.66441,44.7036767 21.8310593,45.0786376 C22.3726695,46.4118321 23.0392667,47.3284033 23.6433705,47.932507 C24.1224872,48.4116238 24.3099677,48.182481 24.5182793,47.6408707 C24.726591,47.0575982 25.3515259,45.8702219 26.2056036,44.9119883 C26.6847203,44.4328716 27.1430059,43.849599 27.538798,43.3913134 C27.8720967,43.0580148 28.0804083,43.0580148 28.2053953,43.4746381 C28.4137069,44.0579106 28.6428497,44.7036767 28.934486,45.4327674 C29.4136027,46.4951568 29.5385897,47.6617019 29.5385897,49.0157275 C29.5385897,49.5781689 29.6427455,49.6406624 30.0385377,49.5990001 C31.3092386,49.4948443 32.9340694,48.6407666 33.3715238,47.8700135 C33.6006666,47.4533903 33.7464847,47.3492345 33.9339652,47.8700135 C34.163108,48.432455 34.3297573,49.7864806 34.3297573,50.8280387 L34.3297573,50.8697011 C34.3297573,53.9735444 33.1632122,54.9734403 32.1424852,55.7441933 C31.3300698,56.3274659 29.3302781,57.1398813 28.684512,57.3065306 C28.0179148,57.494011 27.913759,57.5981669 28.4137069,58.0564525 C28.7053432,58.3480887 28.8928237,58.5772315 29.0803041,58.764712 C29.3927716,59.0980106 29.2886158,59.3063223 28.8719925,59.3479846 C28.3095511,59.4313092 27.7262785,59.5979585 27.0596813,59.910426 C26.4555775,60.1604 25.8098115,60.4312051 25.1223831,60.3895428 C25.1848766,60.806166 25.1848766,61.1602958 25.1848766,61.4519321 C25.1848766,63.7641912 23.4350588,66.6388918 19.9562546,69.9302156 L20.018748,69.9718779 C21.7685658,69.0344756 23.8100198,68.6595146 25.372357,68.6595146 C27.4971357,68.6595146 29.3094469,69.6594105 30.3718363,71.1800854 C31.5175503,72.7424227 31.8925112,74.575565 31.8925112,76.2628893 C31.8925112,76.8044995 31.6841996,77.0753047 31.3509009,76.4087074 C30.8717842,75.3463181 29.4969274,73.9506301 27.788772,73.6173315 C27.4138111,73.5340069 27.2888241,73.6173315 27.2888241,73.9506301 C27.2888241,74.575565 26.9555255,75.5754609 26.3514217,76.1379023 C25.8514738,76.5545256 25.6848245,76.3670451 25.6848245,75.7629414 C25.6848245,75.3463181 25.1223831,71.0342673 19.9354234,71.0342673 C19.1021769,71.0342673 18.7897094,71.4717217 18.5189043,71.8050203 C16.3941256,74.4297469 15.0817623,77.0128112 15.0817623,79.9083429 C15.0817623,82.9705239 16.6857619,84.9494844 19.1438392,84.9494844 C20.7895011,84.9494844 21.6019165,83.9495886 22.1018644,82.6997188 C22.2476825,82.4914071 22.4976565,82.4080825 22.8517863,82.4497448 C23.6642016,82.5330695 24.4141235,83.3038225 24.4141235,84.3453807 C24.4141235,85.9910426 22.7267993,87.1784189 20.7686699,87.1784189 C16.1649828,87.1784189 13.8110613,82.9288616 13.8110613,79.2000833 C13.8110613,75.9295907 15.2484116,73.2215394 17.0607228,70.867618 C17.6023331,70.1801896 17.9356317,69.7635663 17.9356317,69.0969691 C17.9356317,67.0346839 16.185814,65.5348401 13.8318925,65.3056973 C13.3319446,65.264035 12.3528799,65.4098531 11.9570878,65.5973336 C11.3946464,65.8264764 11.3946464,65.514009 11.6237892,65.0765545 C11.8321008,64.7015936 12.7903343,63.222581 13.2277888,62.8267889 C13.7277367,62.4101656 13.6235809,62.2643475 13.1652953,62.0560358 C12.2278929,61.5769191 10.6238933,61.5352567 10.1864389,61.5352567 C9.58233517,61.5352567 9.6239975,61.2019581 10.0614519,60.9519842 C11.2071659,60.2437246 13.0403083,59.7646079 14.4568274,59.7646079 C18.3939173,59.7646079 19.4771378,63.3892303 19.4771378,65.5348401 C19.4771378,66.3055932 19.3104885,67.7637746 18.7897094,69.0344756 L18.9146964,69.0136444 L18.9146964,69.0136444 Z M24.2058119,106.051453 L21.0186439,109.57192 L17.8314759,106.051453 L20.9978127,102.572649 L17.8314759,99.1146756 L14.665139,102.59348 L11.477971,99.0730132 L14.665139,95.5525466 L17.8314759,99.0313509 L20.9978127,95.5108843 L17.8314759,92.03208 L21.0186439,88.5116134 L24.2058119,92.03208 L21.0394751,95.5317154 L24.2058119,99.0521821 L27.3721487,95.5733778 L30.5593167,99.0938444 L27.3721487,102.614311 L24.2058119,99.1355067 L21.0394751,102.551818 L24.2058119,106.051453 L24.2058119,106.051453 Z M35.7879388,98.6772211 L42.9746901,90.761379 L50.8072076,98.6772211 L42.9746901,107.217998 L35.7879388,98.6772211 Z M71.0134361,52.0362462 C71.0134361,54.5151547 70.6384752,58.8688678 67.4513072,58.8688678 C64.2641392,58.8688678 63.7016977,54.5151547 63.7016977,52.0362462 C63.7016977,49.5573378 65.9514634,43.7454432 66.3264243,41.4748464 C66.7013853,39.4125612 67.4513072,33.6006666 67.4513072,33.6006666 C67.4513072,33.6006666 68.201229,39.39173 68.57619,41.4748464 C68.9511509,43.7454432 71.0134361,49.3490261 71.0134361,52.0362462 Z M70.8259556,38.1626914 C70.8259556,37.7460681 70.8259556,37.3294448 71.0134361,36.9128216 C71.763358,38.371003 73.2632017,40.4332882 75.5129674,41.4748464 C77.9502135,42.9330278 81.3456932,43.7454432 81.3456932,46.8701177 C81.3456932,48.5157796 80.2208103,49.973961 78.7209666,49.973961 C74.7630455,49.973961 70.8259556,41.2665347 70.8259556,38.1626914 L70.8259556,38.1626914 Z M75.1380065,71.7425268 L67.3888137,80.3666285 L60.2020623,71.7425268 L67.3888137,63.8266847 L75.1380065,71.7425268 Z M55.7858556,49.973961 C54.2860119,49.973961 53.161129,48.5157796 53.161129,46.8701177 C53.161129,43.7662743 56.5357775,42.9330278 58.9938548,41.683158 C61.2436205,40.4332882 62.7434642,38.371003 63.5142173,36.9128216 C63.7016977,37.3294448 63.7016977,37.7460681 63.7016977,38.1626914 C63.6808666,41.2665347 59.7229455,49.973961 55.7858556,49.973961 L55.7858556,49.973961 Z M11.4571399,33.6839913 L14.6234767,37.1627955 L17.7898136,33.6423289 L14.6234767,30.1635246 L17.8106447,26.643058 L20.9978127,30.1635246 L17.8314759,33.6423289 L20.9978127,37.1627955 L24.1641496,33.6839913 L27.3513176,37.2044579 L24.1641496,40.7249245 L20.9978127,37.2461202 L17.8314759,40.7040933 L20.9978127,44.1828976 L17.8106447,47.7033642 L14.6026456,44.1620665 L17.7689824,40.6832622 L14.6026456,37.225289 L11.4571399,40.7040933 L8.26997188,37.1836267 L11.4571399,33.6839913 L11.4571399,33.6839913 Z M14.6026456,167.920008 L17.7689824,164.441204 L14.6026456,160.983231 L11.4571399,164.462035 L8.26997188,160.941569 L11.4571399,157.421102 L14.6234767,160.899906 L17.7898136,157.37944 L14.6234767,153.900635 L17.8106447,150.380169 L20.9978127,153.900635 L17.8314759,157.37944 L20.9978127,160.899906 L24.1641496,157.421102 L27.3513176,160.941569 L24.1641496,164.462035 L20.9978127,160.983231 L17.8314759,164.441204 L20.9978127,167.920008 L17.8106447,171.440475 L14.6026456,167.920008 L14.6026456,167.920008 Z M106.905531,182.605979 C99.9479221,182.605979 94.5109884,173.898552 89.990626,169.149047 L89.8031455,169.357359 C90.5530674,171.023852 90.7405479,172.669514 90.7405479,174.544318 C90.7405479,176.398292 89.615665,182.418498 84.1579002,182.418498 C79.6583689,182.418498 77.9502135,178.481408 77.9502135,176.419123 C77.9502135,173.731903 79.6375378,170.62806 82.470576,170.62806 C84.9078221,170.62806 85.8452245,172.502864 85.8452245,173.731903 C85.8452245,175.169253 85.282783,176.627435 83.9704197,176.627435 C82.6580565,176.627435 82.095615,175.585876 82.095615,174.148526 C81.9081346,173.940215 82.095615,173.31528 82.095615,172.898656 C81.3456932,172.898656 79.6583689,173.523591 79.6583689,176.419123 C79.6583689,178.898031 81.7206541,180.772836 83.9704197,180.772836 C86.4076659,180.772836 89.0532236,179.314655 89.0532236,174.356838 C89.0532236,169.586501 87.1784189,164.420373 78.908447,164.420373 C76.2837204,164.420373 68.9511509,166.482658 68.9511509,175.606708 C68.9511509,180.168732 71.0134361,181.189459 72.5132799,181.189459 C73.8256432,181.189459 74.950526,180.356213 74.950526,178.918863 C74.950526,177.877304 74.3880846,177.064889 73.6381627,176.856577 C73.6381627,177.689824 73.0757213,178.502239 72.5132799,178.502239 C71.763358,178.502239 71.2009166,177.460681 71.2009166,176.648266 C71.2009166,175.815019 71.763358,174.585981 73.2632017,174.585981 C74.3880846,174.585981 76.4503698,175.627539 76.4503698,178.314759 C76.4503698,181.626914 74.3880846,182.668472 72.4924487,182.668472 C70.2426831,182.668472 68.1803979,181.210291 67.5138006,177.898136 L67.3263202,177.898136 C66.6597229,181.210291 64.5974378,182.668472 62.1601916,182.668472 C60.4728674,182.668472 58.4105822,181.626914 58.4105822,178.314759 C58.4105822,175.627539 60.4728674,174.377669 61.5977502,174.377669 C63.097594,174.377669 63.6600354,175.83585 63.6600354,176.648266 C63.6600354,177.481512 63.097594,178.502239 62.3476721,178.502239 C61.5977502,178.502239 61.2227893,177.668993 61.2227893,176.856577 C60.4728674,177.064889 59.910426,177.898136 59.910426,178.710551 C59.910426,180.377044 60.8478284,181.189459 62.1601916,181.189459 C63.8475159,181.189459 65.9098011,180.147901 65.9098011,175.606708 C65.9098011,166.503489 58.5772315,164.420373 55.7650245,164.420373 C47.6825331,164.420373 45.8077284,169.607333 45.8077284,174.148526 C45.8077284,179.335486 48.432455,180.772836 50.8905322,180.772836 C53.1402979,180.772836 55.2025831,178.898031 55.2025831,176.419123 C55.2025831,173.523591 53.3277784,172.898656 52.5778565,172.898656 C52.7653369,173.31528 52.7653369,173.731903 52.7653369,174.148526 C52.7653369,175.606708 52.2028955,176.627435 50.8905322,176.627435 C49.3906885,176.627435 49.0157275,175.169253 49.0157275,173.731903 C49.0157275,172.482033 49.9531299,170.62806 52.390376,170.62806 C55.2025831,170.62806 56.9107385,173.731903 56.9107385,176.419123 C56.9107385,178.293928 55.2234142,182.418498 50.7030518,182.418498 C45.2452869,182.418498 44.1204041,176.419123 44.1204041,174.544318 C44.1204041,172.669514 44.3078846,171.023852 44.870326,169.357359 L44.6828455,169.149047 C40.1833142,173.919383 34.9130299,182.605979 27.7679408,182.605979 C21.1852932,182.605979 20.4353713,176.606603 20.4353713,174.94011 C20.4353713,172.877825 21.1852932,168.107489 26.643058,168.107489 C29.0803041,168.107489 30.97594,170.190605 30.97594,172.461202 C30.97594,174.94011 29.4760962,175.981669 28.3512134,175.981669 C27.2263306,175.981669 26.1014478,175.148422 26.1014478,173.711072 C26.1014478,172.044579 26.8513696,171.836267 27.2263306,171.627955 C27.0388501,171.003021 26.4764087,170.586397 25.9139673,170.586397 C24.9765649,170.586397 22.3518384,170.794709 22.3518384,174.94011 C22.3518384,178.668889 24.7890845,180.731174 27.8096032,180.731174 C32.7049266,180.731174 35.8920946,177.002396 44.7245079,166.649307 L44.5370274,166.440996 C43.2246641,167.065931 41.5373399,167.690866 40.3916259,167.690866 C37.3919383,167.690866 33.8089782,165.607749 33.8089782,159.816686 C33.8089782,154.233934 37.1836267,151.942506 40.3916259,151.942506 C43.9537548,151.942506 46.0368712,155.046349 46.0368712,157.316946 C46.0368712,159.587543 44.9119883,160.837413 43.2246641,160.837413 C41.7248203,160.837413 41.1623789,159.587543 41.1623789,158.566816 C41.1623789,157.525258 41.5373399,156.087908 43.4121446,156.296219 C43.0371836,155.254661 42.2872617,154.025622 40.412457,154.025622 C37.9752109,154.025622 35.5171336,156.087908 35.5171336,159.816686 C35.5171336,163.753776 37.7668993,165.816061 40.412457,165.816061 C41.3498594,165.816061 43.0371836,165.399438 44.9328195,164.566191 C46.9951047,163.732944 52.4528695,162.087283 55.827518,162.087283 C59.3896469,162.087283 65.5973336,164.566191 67.4721383,171.607124 L67.5762941,171.607124 C69.3677742,164.566191 75.5546297,162.295594 78.9501094,162.295594 C82.5122383,162.295594 87.9700031,163.753776 90.0322883,164.566191 C91.907093,165.399438 93.5944172,165.816061 94.5526508,165.816061 C97.1773774,165.816061 99.4479742,163.753776 99.4479742,159.816686 C99.4479742,156.087908 97.010728,154.025622 94.3651703,154.025622 C92.6778461,154.025622 91.9279242,155.275492 91.5529632,156.296219 C93.4277679,156.087908 93.8027289,157.546089 93.8027289,158.566816 C93.8027289,159.608374 93.2402875,160.837413 91.7404437,160.837413 C90.0531195,160.837413 88.9282366,159.587543 88.9282366,157.316946 C88.9282366,155.046349 90.9905218,151.942506 94.3860015,151.942506 C97.7606499,151.942506 101.15613,154.213103 101.15613,159.816686 C101.15613,165.607749 97.4065202,167.690866 94.3860015,167.690866 C93.4485991,167.690866 91.7612749,167.065931 90.2614311,166.440996 L90.0739506,166.649307 C99.0938444,177.002396 102.281012,180.731174 107.176336,180.731174 C110.176023,180.731174 112.634101,178.668889 112.634101,174.94011 C112.634101,170.794709 110.009374,170.586397 109.071972,170.586397 C108.50953,170.586397 107.947089,171.003021 107.759608,171.627955 C107.947089,171.836267 108.884491,172.044579 108.884491,173.711072 C108.884491,175.356734 107.759608,175.981669 106.634726,175.981669 C105.509843,175.981669 104.009999,174.94011 104.009999,172.461202 C104.009999,170.190605 105.884804,168.107489 108.134569,168.107489 C113.779815,168.107489 114.529736,172.877825 114.529736,174.94011 C114.425581,176.606603 113.488178,182.605979 106.905531,182.605979 L106.905531,182.605979 Z M123.632955,164.462035 L120.466618,160.983231 L117.300281,164.441204 L120.466618,167.920008 L117.27945,171.419644 L114.092282,167.899177 L117.258619,164.420373 L114.092282,160.9624 L110.925945,164.441204 L107.738777,160.920737 L110.925945,157.400271 L114.092282,160.879075 L117.258619,157.358608 L114.092282,153.879804 L117.27945,150.401 L120.466618,153.921467 L117.300281,157.400271 L120.466618,160.920737 L123.632955,157.441933 L126.820123,160.9624 L123.632955,164.462035 Z M123.632955,40.7040933 L120.466618,37.225289 L117.300281,40.6832622 L120.466618,44.1620665 L117.27945,47.6825331 L114.092282,44.1620665 L117.258619,40.6832622 L114.092282,37.225289 L110.925945,40.7040933 L107.738777,37.1836267 L110.925945,33.6631601 L114.092282,37.1419644 L117.258619,33.6214978 L114.092282,30.1426935 L117.27945,26.6638892 L120.466618,30.1843558 L117.300281,33.6631601 L120.466618,37.1836267 L123.632955,33.7048224 L126.820123,37.225289 L123.632955,40.7040933 L123.632955,40.7040933 Z M107.96792,50.7238829 C107.42631,50.348922 107.301323,50.348922 106.988855,50.8697011 C106.551401,51.619623 106.238933,52.5361941 106.238933,53.4944277 C106.238933,55.0775961 107.113842,56.3899594 108.009582,57.0773878 C108.50953,57.4523487 108.572024,57.3690241 108.884491,56.9940631 C109.426101,56.2858036 109.863556,54.9526091 109.863556,54.2235184 L109.863556,54.1818561 C109.863556,52.6195188 108.821998,51.3279867 107.96792,50.7238829 Z M39.7041975,131.444641 L39.891678,131.652953 C47.9950005,130.423914 52.9528174,126.820123 56.8690761,122.508072 C62.4726591,116.446204 65.1598792,109.051141 65.7223206,103.176752 L65.5348401,102.968441 L39.7041975,131.444641 Z M108.030413,140.360379 C107.113842,141.068639 106.259765,142.360171 106.259765,143.943339 C106.259765,144.901573 106.572232,145.838975 107.009686,146.568066 C107.301323,147.088845 107.447141,147.088845 107.988751,146.713884 C108.86366,146.130611 109.905218,144.818248 109.905218,143.23508 L109.905218,143.193417 C109.905218,142.464327 109.467764,141.131132 108.926154,140.422873 C108.592855,140.047912 108.530361,139.985418 108.030413,140.360379 L108.030413,140.360379 Z M71.6800333,99.0730132 L71.8675138,99.2813249 L71.8675138,99.0730132 L71.6800333,99.0730132 Z M72.9923966,126.216019 L67.9512551,120.049995 L62.4518279,125.591084 L67.9512551,131.652953 L72.9923966,126.216019 Z M91.8237684,104.218311 L97.3231955,98.65639 L91.8237684,93.1153005 L86.7826268,98.65639 L91.8237684,104.218311 Z M62.4518279,71.7425268 L67.3888137,77.9085512 L72.9923966,71.7425268 L67.3888137,66.3055932 L62.4518279,71.7425268 L62.4518279,71.7425268 Z M25.9764608,57.0982189 C26.893032,56.3899594 27.7471097,55.0984272 27.7471097,53.5152588 C27.7471097,52.5570253 27.4346422,51.619623 27.018019,50.8905322 C26.7263827,50.3697532 26.5805645,50.3697532 26.0389543,50.7447141 C25.1640454,51.3279867 24.1224872,52.64035 24.1224872,54.2235184 L24.1224872,54.2651807 C24.1224872,54.9942714 24.5599417,56.3274659 25.1015519,57.0357254 C25.4140194,57.3898552 25.4765129,57.4731799 25.9764608,57.0982189 Z M27.6429539,146.713884 C28.1845641,147.088845 28.3095511,147.088845 28.6220185,146.568066 C29.059473,145.818144 29.3719404,144.901573 29.3719404,143.943339 C29.3719404,142.360171 28.4970316,141.047808 27.6012915,140.360379 C27.1013436,139.985418 27.0388501,140.068743 26.7263827,140.443704 C26.1847724,141.151963 25.747318,142.485158 25.747318,143.214249 L25.747318,143.255911 C25.747318,144.818248 26.768045,146.130611 27.6429539,146.713884 L27.6429539,146.713884 Z M69.6385793,103.197584 C70.2010207,109.051141 72.9923966,116.446204 78.4918238,122.528903 C82.4080825,126.840954 86.7826268,130.444745 95.469222,131.673784 L95.6567024,131.465472 L69.8260598,103.010103 L69.6385793,103.197584 L69.6385793,103.197584 Z M71.3050724,101.34361 L97.6981564,129.798979 L97.8856369,129.590668 C96.7607541,120.029164 92.9486512,115.196334 89.0323925,110.884283 C83.9912509,104.822414 76.8044995,101.739402 71.4925529,101.114467 L71.3050724,101.34361 Z M39.891678,66.3055932 L39.7041975,66.5139048 L65.5348401,94.969274 L65.7223206,94.7609624 C64.5974378,88.9074055 62.4518279,81.5123425 56.8690761,75.4504739 C52.9319863,71.1384231 47.9950005,67.5346318 39.891678,66.3055932 Z M95.6567024,66.5139048 L95.469222,66.3055932 C86.803458,67.5346318 82.4080825,71.1384231 78.4918238,75.4504739 C72.9923966,81.5123425 70.1801896,88.9074055 69.6385793,94.7609624 L69.8260598,94.969274 L95.6567024,66.5139048 L95.6567024,66.5139048 Z M97.6981564,68.1387355 L71.3050724,96.6149359 L71.4925529,96.8232476 C76.8044995,96.1983127 83.5329653,93.1153005 89.0323925,87.0534319 C92.9486512,82.7413811 96.2191438,77.9085512 97.8856369,68.3470472 L97.6981564,68.1387355 Z" id="Shape"></path>
        </g>
    </g>
</svg>